#!OML:ASF E:\Style4\Style4.ASF
:FULLY-SPECIFIED
:DEGREES
2679
root -0.886238 17.3248 -1.82997 11.107 1.17821 -1.37689
lowerback 18.0003 3.95191 -3.22671
upperback 13.8934 4.81622 -4.21702
thorax 5.13858 2.41261 -3.33094
lowerneck -1.57792 -16.8026 -2.17025
upperneck 35.2166 -21.6159 -4.41679
head 11.5413 -10.3546 -3.30722
rclavicle 1.98785e-014 -2.8625e-014
rhumerus 62.1508 13.7682 -1484.72
rradius 17.8258
rwrist 1482.05
rhand -6.41973 12.4621
rfingers 7.12502
rthumb 19.4288 -16.5873
lclavicle 1.98785e-014 -2.8625e-014
lhumerus 69.0984 12.3344 33.6016
lradius 122.65
lwrist 46.9977
lhand -8.53408 27.2053
lfingers 7.12502
lthumb 17.3949 56.4469
rfemur -36.6697 -6.06889 25.8469
rtibia 44.4112
rfoot -18.7785 -16.4256
rtoes -4.85305
lfemur -38.2062 4.48033 -14.6898
ltibia 45.9616
lfoot -17.8463 9.52783
ltoes -15.5825
2680
root -0.916919 17.3056 -1.82648 11.0834 1.93727 -1.23386
lowerback 17.9385 3.86665 -3.32257
upperback 14.0247 4.71271 -4.05857
thorax 5.29104 2.34774 -3.08618
lowerneck -1.1773 -16.5472 -3.01991
upperneck 34.7495 -21.3437 -3.69808
head 11.495 -10.2595 -2.87914
rclavicle -3.18055e-014 4.6118e-014
rhumerus 62.8008 15.3307 -1483.07
rradius 18.3853
rwrist 1480.85
rhand -4.84513 11.9933
rfingers 7.12502
rthumb 20.9422 -16.8962
lclavicle -3.18055e-014 4.6118e-014
lhumerus 68.4672 12.8913 33.2993
lradius 122.467
lwrist 46.7927
lhand -8.66382 27.0468
lfingers 7.12502
lthumb 17.27 56.2995
rfemur -36.8995 -6.51973 25.861
rtibia 44.9466
rfoot -19.1084 -16.7461
rtoes -5.24029
lfemur -38.455 4.07162 -14.6986
ltibia 46.1349
lfoot -17.7137 9.29051
ltoes -16.1969
2681
root -0.95088 17.2848 -1.82614 11.1307 2.74032 -1.08116
lowerback 17.883 3.78165 -3.4527
upperback 14.0993 4.60183 -3.90579
thorax 5.37493 2.27667 -2.82976
lowerneck -0.67411 -16.2991 -3.73724
upperneck 34.2119 -21.0872 -3.02093
head 11.3725 -10.1677 -2.46415
rclavicle -2.06736e-014 2.26615e-014
rhumerus 63.4442 16.9001 -1481.45
rradius 18.9606
rwrist 1479.74
rhand -3.08751 11.761
rfingers 7.12502
rthumb 22.63 -16.9323
lclavicle -2.06736e-014 2.26615e-014
lhumerus 67.7994 13.4257 33.0643
lradius 122.199
lwrist 46.8924
lhand -8.53391 26.6796
lfingers 7.12502
lthumb 17.3951 55.9212
rfemur -37.2144 -6.99068 25.9006
rtibia 45.4924
rfoot -19.562 -17.0138
rtoes -4.97405
lfemur -38.7967 3.75261 -14.7428
ltibia 46.3359
lfoot -17.5054 9.01739
ltoes -17.2454
2682
root -0.983729 17.2633 -1.82503 11.2035 3.57299 -0.841146
lowerback 17.856 3.68513 -3.64392
upperback 14.1206 4.46406 -3.76901
thorax 5.38147 2.18863 -2.55654
lowerneck -0.911799 -16.0318 -4.06928
upperneck 34.4592 -20.5795 -3.31411
head 11.5144 -9.98557 -2.51048
rclavicle 2.8625e-014 -7.43455e-014
rhumerus 64.1234 18.5369 -1479.77
rradius 19.6101
rwrist 1478.46
rhand -1.05842 11.2927
rfingers 7.12502
rthumb 24.5762 -17.1498
lclavicle 2.8625e-014 -7.43455e-014
lhumerus 67.2776 13.7323 32.8698
lradius 122.072
lwrist 46.8282
lhand -8.36846 26.5731
lfingers 7.12502
lthumb 17.5543 55.8006
rfemur -37.5498 -7.55356 25.8506
rtibia 46.0603
rfoot -19.8576 -17.3578
rtoes -5.94226
lfemur -39.1417 3.45606 -14.9221
ltibia 46.5482
lfoot -17.2837 8.89744
ltoes -19.6813
2683
root -1.013 17.2432 -1.82213 11.2069 4.35082 -0.657105
lowerback 17.9211 3.58895 -3.75002
upperback 14.1295 4.32899 -3.63189
thorax 5.3342 2.10895 -2.33659
lowerneck -0.995462 -15.7038 -4.68633
upperneck 34.5771 -20.0465 -3.28318
head 11.6565 -9.79587 -2.3897
rclavicle -2.14687e-014 6.87795e-014
rhumerus 64.8321 20.169 -1478.23
rradius 20.2613
rwrist 1477.49
rhand 0.304717 10.1459
rfingers 7.12502
rthumb 25.8822 -18.1126
lclavicle -2.14687e-014 6.87795e-014
lhumerus 66.7493 13.9385 32.6378
lradius 122.184
lwrist 46.6147
lhand -8.32369 26.7651
lfingers 7.12502
lthumb 17.5974 55.9888
rfemur -37.8109 -8.11121 25.8422
rtibia 46.625
rfoot -19.7993 -17.9282
rtoes -8.61367
lfemur -39.3959 3.14178 -15.0182
ltibia 46.7453
lfoot -17.1958 8.63056
ltoes -20.6815
2684
root -1.04311 17.219 -1.8221 11.2305 5.11461 -0.435387
lowerback 17.995 3.51331 -3.93683
upperback 14.1602 4.21087 -3.48656
thorax 5.30383 2.03103 -2.06528
lowerneck -0.522698 -15.3704 -5.50275
upperneck 34.0399 -19.6732 -2.60889
head 11.5346 -9.66017 -1.94812
rclavicle -2.82274e-014 3.37934e-014
rhumerus 65.5843 21.6868 -1476.8
rradius 20.9164
rwrist 1476.65
rhand 1.77482 9.32768
rfingers 7.12502
rthumb 27.2892 -18.7176
lclavicle -2.82274e-014 3.37934e-014
lhumerus 66.1313 14.3506 32.4505
lradius 122.472
lwrist 46.5423
lhand -8.24518 27.2275
lfingers 7.12502
lthumb 17.6729 56.4444
rfemur -38.1334 -8.57378 25.7855
rtibia 47.2072
rfoot -19.8782 -18.4334
rtoes -9.75513
lfemur -39.6992 2.78291 -15.121
ltibia 46.906
lfoot -17.0498 8.16772
ltoes -20.2263
2685
root -1.07263 17.1968 -1.81855 11.1885 5.91375 -0.194415
lowerback 18.141 3.41133 -4.06428
upperback 14.2048 4.06306 -3.37468
thorax 5.26063 1.94554 -1.86224
lowerneck -0.318427 -15.0953 -6.07032
upperneck 33.8267 -19.2927 -2.34198
head 11.506 -9.52457 -1.71615
rclavicle 4.57205e-014 -7.91163e-014
rhumerus 66.1477 22.9716 -1476.4
rradius 21.3879
rwrist 1476.54
rhand 3.87057 9.40766
rfingers 7.12502
rthumb 29.2921 -18.3055
lclavicle 4.57205e-014 -7.91163e-014
lhumerus 65.5969 14.8701 32.2199
lradius 122.698
lwrist 46.628
lhand -8.18527 27.7243
lfingers 7.12502
lthumb 17.7306 56.936
rfemur -38.3541 -9.07267 25.6956
rtibia 47.7759
rfoot -20.2056 -18.7569
rtoes -9.57221
lfemur -39.8893 2.36782 -15.2355
ltibia 47.0165
lfoot -16.9269 7.80319
ltoes -20.3348
2686
root -1.1015 17.179 -1.81216 11.0946 6.73136 0.102081
lowerback 18.3777 3.29623 -4.20308
upperback 14.2259 3.8897 -3.29411
thorax 5.14795 1.8494 -1.68768
lowerneck -0.196632 -14.8404 -6.56429
upperneck 33.7599 -18.8785 -2.31472
head 11.51 -9.38612 -1.58455
rclavicle 5.96354e-015 -1.27222e-014
rhumerus 66.7823 24.3117 -1475.93
rradius 21.8557
rwrist 1476.21
rhand 5.60272 9.25927
rfingers 7.12502
rthumb 30.9447 -18.1527
lclavicle 5.96354e-015 -1.27222e-014
lhumerus 65.0243 15.3221 31.87
lradius 122.69
lwrist 46.6652
lhand -8.04889 27.7806
lfingers 7.12502
lthumb 17.8618 56.9803
rfemur -38.4964 -9.66467 25.5498
rtibia 48.3366
rfoot -20.832 -18.7957
rtoes -8.20192
lfemur -39.973 1.9053 -15.4104
ltibia 47.0926
lfoot -16.8708 7.48677
ltoes -20.661
2687
root -1.12932 17.1625 -1.80651 11.1106 7.51853 0.315922
lowerback 18.46 3.20814 -4.36072
upperback 14.2345 3.7565 -3.11867
thorax 5.09276 1.7652 -1.39794
lowerneck 0.123347 -14.5603 -7.19732
upperneck 33.4798 -18.4705 -2.11919
head 11.4255 -9.25436 -1.34848
rclavicle 1.63003e-014 -7.99114e-014
rhumerus 67.9064 25.8623 -1473.78
rradius 22.7397
rwrist 1474.56
rhand 7.18454 8.74951
rfingers 7.12502
rthumb 32.4513 -18.3649
lclavicle 1.63003e-014 -7.99114e-014
lhumerus 64.2398 15.7634 31.4447
lradius 122.527
lwrist 46.5634
lhand -8.10391 27.5449
lfingers 7.12502
lthumb 17.8089 56.7494
rfemur -38.7445 -10.2589 25.5351
rtibia 48.8654
rfoot -21.571 -18.6917
rtoes -5.97957
lfemur -40.1791 1.53772 -15.5244
ltibia 47.1511
lfoot -16.7586 7.08569
ltoes -20.6155
2688
root -1.15578 17.1437 -1.80398 11.1654 8.2416 0.426104
lowerback 18.5197 3.13415 -4.43502
upperback 14.2322 3.65147 -2.91738
thorax 5.04008 1.69964 -1.12968
lowerneck -0.0176581 -14.2903 -7.77532
upperneck 33.6891 -17.9993 -2.16723
head 11.5861 -9.09655 -1.26223
rclavicle 3.26007e-014 -5.32743e-014
rhumerus 69.0665 27.2447 -1471.95
rradius 23.5406
rwrist 1473.52
rhand 8.97879 8.63263
rfingers 7.12502
rthumb 34.1571 -18.1161
lclavicle 3.26007e-014 -5.32743e-014
lhumerus 63.4013 16.1252 31.0664
lradius 122.36
lwrist 46.3893
lhand -8.21509 27.4736
lfingers 7.12502
lthumb 17.7019 56.6878
rfemur -39.0281 -10.7461 25.6189
rtibia 49.3472
rfoot -21.9577 -18.8365
rtoes -5.14523
lfemur -40.4474 1.23382 -15.5247
ltibia 47.1967
lfoot -16.5906 6.72791
ltoes -20.4743
2689
root -1.18268 17.128 -1.79929 11.1581 8.97865 0.604708
lowerback 18.6375 3.05663 -4.53127
upperback 14.2639 3.53832 -2.74858
thorax 5.00017 1.63059 -0.884843
lowerneck -0.75154 -14.0288 -8.21711
upperneck 34.4931 -17.4322 -2.50979
head 12.0532 -8.89625 -1.36637
rclavicle -1.23246e-014 2.26615e-014
rhumerus 70.2865 28.4748 -1470.47
rradius 24.1547
rwrist 1472.83
rhand 10.6531 8.52987
rfingers 7.12502
rthumb 35.7455 -17.8488
lclavicle -1.23246e-014 2.26615e-014
lhumerus 62.6217 16.5072 30.6995
lradius 122.365
lwrist 46.2594
lhand -8.31972 27.7783
lfingers 7.12502
lthumb 17.6012 57.0016
rfemur -39.1937 -11.2407 25.5966
rtibia 49.7912
rfoot -22.2379 -19.1366
rtoes -5.33525
lfemur -40.6072 0.92525 -15.5997
ltibia 47.233
lfoot -16.4 6.31305
ltoes -20.3361
